<?xml version="1.0" standalone="no"?>
<!DOCTYPE svg PUBLIC "-//W3C//DTD SVG 20010904//EN"
 "http://www.w3.org/TR/2001/REC-SVG-20010904/DTD/svg10.dtd">
<svg version="1.0" xmlns="http://www.w3.org/2000/svg"
 width="16.000000pt" height="16.000000pt" viewBox="0 0 16.000000 16.000000"
 preserveAspectRatio="xMidYMid meet">

<g transform="translate(0.000000,16.000000) scale(0.100000,-0.100000)"
fill="#000000" stroke="none">
<path d="M16 131 c-17 -18 -17 -20 2 -30 29 -15 62 10 43 33 -17 21 -24 20
-45 -3z"/>
<path d="M130 139 c6 -8 5 -20 -2 -33 -10 -20 -10 -20 8 -3 17 16 17 18 1 32
-9 8 -13 10 -7 4z"/>
<path d="M106 46 c-15 -24 -15 -26 3 -35 13 -7 24 -6 36 3 18 13 18 14 -2 35
l-20 22 -17 -25z"/>
<path d="M51 27 c-13 -21 -12 -21 5 -5 10 10 16 20 13 22 -3 3 -11 -5 -18 -17z"/>
</g>
</svg>
